<svg xmlns="http://www.w3.org/2000/svg" viewBox="0 0 512 512">
<title>八部半 · 8½</title>
<rect width="512" height="512" fill="#faf8f4"/>
<rect x="24" y="24" width="464" height="464" fill="none" stroke="#d9d5cc" stroke-width="3"/>
<path d="M199.32 174.77L199.32 174.77Q210.63 174.77 219.66 177.54Q228.68 180.31 233.98 185.96Q239.27 191.62 239.27 200.53Q239.27 209.43 233.98 217.37Q228.68 225.31 220.02 231.93Q211.36 238.55 201.73 243.85L201.73 243.85Q194.75 247.7 188.49 250.83L188.49 250.83Q194.51 256.12 200.28 261.66L200.28 261.66Q207.99 268.88 213.28 277.66Q218.58 286.44 218.58 298.24Q218.58 310.03 212.68 319.9Q206.78 329.77 196.55 336.87Q186.33 343.96 173.09 347.94Q159.85 351.91 145.41 351.91L145.41 351.91Q132.42 351.91 121.71 348.54Q111 345.17 104.5 338.31Q98 331.45 98 320.38L98 320.38Q98 310.03 103.78 300.88Q109.55 291.74 119.18 284.04Q128.81 276.34 140.6 270.32L140.6 270.32Q149.74 265.51 158.89 261.9L158.89 261.9Q156.24 259.25 153.35 256.36L153.35 256.36Q145.89 249.38 140.84 241.08Q135.79 232.78 135.79 221.46L135.79 221.46Q135.79 210.87 141.08 202.33Q146.37 193.79 155.28 187.65Q164.18 181.51 175.62 178.14Q187.05 174.77 199.32 174.77M161.54 264.3L161.54 264.3Q154.32 269.6 148.3 277.3L148.3 277.3Q140.84 286.93 136.51 298.84Q132.18 310.75 132.18 323.75L132.18 323.75Q132.18 334.34 136.15 340.96Q140.12 347.58 150.23 347.58L150.23 347.58Q159.37 347.58 167.55 342.28Q175.74 336.99 180.79 327.72Q185.84 318.45 185.84 307.14L185.84 307.14Q185.84 295.35 180.79 286.69Q175.74 278.02 168.28 270.8L168.28 270.8Q164.91 267.43 161.54 264.3M185.6 248.18L185.6 248.18Q190.18 243.85 194.51 237.59L194.51 237.59Q200.04 229.41 203.41 219.42Q206.78 209.43 206.78 198.84L206.78 198.84Q206.78 179.11 193.31 179.11L193.31 179.11Q186.33 179.11 180.19 183.8Q174.05 188.49 170.2 196.19Q166.35 203.89 166.35 213.28L166.35 213.28Q166.35 224.11 171.65 232.29Q176.94 240.48 184.88 247.46L184.88 247.46Q185.12 247.94 185.6 248.18" fill="#1a1a18"/>
<path d="M209.91 358.65L410.39 150.23L414 153.35L213.52 361.77L209.91 358.65M313.4 167.31L317.97 167.31L293.66 243.36L270.8 243.36L289.09 187.05Q283.56 189.45 277.66 191.74Q271.76 194.03 262.86 195.95L262.86 195.95L264.06 191.38Q277.06 187.77 285.96 183.8Q294.87 179.83 301.37 175.5Q307.86 171.16 313.4 167.31L313.4 167.31M349.98 272.25L349.98 272.25Q359.37 272.25 365.5 275.49Q371.64 278.74 371.64 285.72L371.64 285.72Q371.64 292.7 366.47 298.84Q361.29 304.98 353.59 310.51Q345.89 316.05 337.83 320.86Q329.77 325.67 323.99 330.01L323.99 330.01Q328.08 330.01 333.38 331.09Q338.67 332.17 344.21 333.26Q349.74 334.34 353.59 334.34L353.59 334.34Q357.92 334.34 360.69 332.53Q363.46 330.73 363.46 327.12L363.46 327.12Q363.46 324.71 362.5 322.79L362.5 322.79L366.59 321.1Q368.27 323.75 369.36 326.76Q370.44 329.77 370.44 332.89L370.44 332.89Q370.44 339.63 364.9 344.57Q359.37 349.5 348.06 349.5L348.06 349.5Q340.11 349.5 332.29 347.58Q324.47 345.65 314.36 345.17L314.36 345.17Q308.35 344.93 304.74 345.65Q301.13 346.37 295.59 348.54L295.59 348.54L296.55 344.21Q300.16 341.56 306.66 337.35Q313.16 333.13 320.38 327.84Q327.6 322.55 334.1 316.53Q340.6 310.51 344.69 304.13Q348.78 297.76 348.78 291.26L348.78 291.26Q348.78 285.72 345.53 283.56Q342.28 281.39 336.74 281.39L336.74 281.39Q330.97 281.39 324.83 284.16Q318.69 286.93 312.92 292.94L312.92 292.94L309.55 290.3Q315.33 283.32 325.67 277.78Q336.02 272.25 349.98 272.25" fill="#8b2e2e"/>
</svg>
