<svg xmlns="http://www.w3.org/2000/svg" viewBox="0 0 512 512">
<title>八部半</title>
<rect x="12" y="12" width="488" height="488" rx="44" fill="#8b2e2e"/>
<path d="M376.23 64.2L393.98 75.51Q391.44 78.24 387.93 80.78L387.93 80.78Q385.01 82.92 381.3 85.26L381.3 85.26Q384.42 104.18 388.91 121.73L388.91 121.73Q394.37 142.98 402.85 161.6Q411.33 180.23 423.13 195.73Q434.93 211.23 451.11 223.32L451.11 223.32L450.14 225.47Q442.34 226.64 435.61 231.61Q428.88 236.58 425.18 243.8L425.18 243.8Q412.11 229.37 403.05 211.82Q393.98 194.27 388.23 172.52Q382.47 150.78 379.16 124.17Q375.84 97.55 373.89 64.98L373.89 64.98L376.23 64.2M318.9 74.93L351.47 80.58Q351.08 82.53 349.52 83.51Q347.96 84.48 343.47 84.48L343.47 84.48Q339.96 118.8 331.68 148.15Q323.39 177.5 307.89 201.58Q292.38 225.66 266.64 243.8L266.64 243.8L264.89 242.04Q278.54 228.2 288.48 209.77Q298.43 191.34 304.96 169.6Q311.49 147.86 314.91 123.87Q318.32 99.89 318.9 74.93L318.9 74.93" fill="#faf8f4"/>
<path d="M375.75 449.26L375.75 272.01L400.12 283.51L416.7 283.51L428.79 272.2L450.82 292.87Q448.87 295.21 441.85 295.4L441.85 295.4Q438.93 300.08 435.12 306.33Q431.32 312.57 426.93 319.1Q422.55 325.63 418.06 331.77Q413.58 337.92 409.29 342.79L409.29 342.79Q422.16 349.62 429.96 358.2Q437.76 366.78 441.46 375.84Q445.17 384.91 445.17 393.49L445.17 393.49Q445.36 408.31 437.95 416.7Q430.54 425.08 412.21 425.28L412.21 425.28Q412.21 420.4 411.43 415.04Q410.65 409.68 409.09 407.53L409.09 407.53Q407.73 405.78 405 404.51Q402.27 403.24 398.37 402.46L398.37 402.46L398.37 399.93L414.36 399.93Q417.28 399.93 419.04 398.76L419.04 398.76Q421.57 397.39 422.94 394.66Q424.3 391.93 424.3 387.06L424.3 387.06Q424.3 376.14 419.62 364.92Q414.94 353.71 404.41 343.38L404.41 343.38Q406.17 337.72 408.31 330.02Q410.46 322.32 412.5 313.83Q414.55 305.35 416.31 297.36L416.31 297.36Q417.28 293.06 418.06 289.16L418.06 289.16L397.59 289.16L397.59 442.44Q397.59 443.22 395.54 444.78Q393.49 446.34 389.49 447.8Q385.5 449.26 379.65 449.26L379.65 449.26L375.75 449.26M281.17 444.97L281.17 365.22L303.99 374.19L333.04 374.19L343.38 362.49L363.07 377.5Q362.29 378.87 360.54 379.74Q358.78 380.62 355.66 381.21L355.66 381.21L355.66 436.2Q355.66 436.78 350.88 438.93Q346.11 441.07 337.72 441.07L337.72 441.07L333.82 441.07L333.82 427.62L301.84 427.62L301.84 439.71Q301.84 441.07 297.36 443.02Q292.87 444.97 284.88 444.97L284.88 444.97L281.17 444.97M331.87 302.62L360.73 311.78Q360.54 313.34 358.78 314.61Q357.03 315.88 353.52 315.69L353.52 315.69Q350.79 320.17 346.11 326.51Q341.43 332.85 335.97 339.48L335.97 339.48Q332.07 343.96 328.17 348.05L328.17 348.05L341.62 348.05L353.91 332.46L356.25 334.21Q358.39 335.97 361.71 338.7Q365.02 341.42 368.73 344.54Q372.43 347.67 375.55 350.4L375.55 350.4Q374.97 353.52 370.29 353.52L370.29 353.52L266.74 353.52L265.18 348.05L323.49 348.05Q325.24 341.62 326.61 334.02L326.61 334.02Q328.36 324.85 329.82 316.37Q331.29 307.89 331.87 302.62L331.87 302.62M301.84 422.16L333.82 422.16L333.82 379.65L301.84 379.65L301.84 422.16M298.33 267.91L300.09 266.74Q312.18 268.11 318.61 271.52Q325.05 274.93 327.29 279.02Q329.53 283.12 328.46 287.02Q327.39 290.92 324.07 293.46L324.07 293.46Q321.93 295.02 319.2 295.6L319.2 295.6L338.7 295.6L350.4 280.58L352.54 282.15Q354.69 283.9 358.1 286.63Q361.51 289.36 365.12 292.38Q368.73 295.4 371.65 297.94L371.65 297.94Q371.46 299.5 369.99 300.28Q368.53 301.06 366.39 301.06L366.39 301.06L269.67 301.06L268.11 295.6L314.52 295.6Q311.01 294.82 307.11 291.9L307.11 291.9Q307.3 285.46 304.67 278.73Q302.04 272.01 298.33 267.91L298.33 267.91M282.15 306.52L284.29 305.54Q295.41 310.22 301.35 315.78Q307.3 321.34 309.25 326.8Q311.2 332.26 310.23 336.55Q309.25 340.84 306.13 343.38Q303.01 345.91 298.92 345.62Q294.82 345.33 290.53 341.23L290.53 341.23Q290.92 335.38 289.75 329.14Q288.58 322.9 286.63 317.05Q284.68 311.2 282.15 306.52L282.15 306.52" fill="#faf8f4"/>
<path d="M64.1 282.71L62.54 277.06L141.13 277.06L141.13 238.65L76.58 238.65L75.02 232.99L141.13 232.99L141.13 164.54L172.33 167.47Q172.14 169.42 170.67 170.98Q169.21 172.54 165.31 173.12L165.31 173.12L165.31 232.99L199.24 232.99L212.31 216.8L214.84 218.56Q217.18 220.51 220.89 223.24Q224.59 225.97 228.78 229.28Q232.98 232.6 236.29 235.52L236.29 235.52Q235.51 238.65 230.83 238.65L230.83 238.65L165.31 238.65L165.31 277.06L206.46 277.06L220.3 259.9L222.83 261.65Q225.37 263.6 229.37 266.63Q233.37 269.65 237.56 273.06Q241.75 276.47 245.46 279.59L245.46 279.59Q245.07 281.15 243.6 281.93Q242.14 282.71 240 282.71L240 282.71L165.31 282.71L165.31 338.88Q165.31 340.04 162.29 342.09Q159.26 344.14 154.78 345.8Q150.3 347.46 145.81 347.46L145.81 347.46L141.13 347.46L141.13 282.71L64.1 282.71M83.21 174.49L84.97 173.32Q99.98 178.39 108.66 185.02Q117.34 191.65 120.95 198.67Q124.56 205.69 124.17 211.64Q123.78 217.58 120.56 221.29Q117.34 224.99 112.47 225.19Q107.59 225.38 102.13 220.9L102.13 220.9Q101.35 212.9 98.52 204.62Q95.7 196.33 91.7 188.53Q87.7 180.73 83.21 174.49L83.21 174.49M198.85 170.78L198.85 170.78L229.27 183.26Q228.49 185.02 226.44 185.99Q224.4 186.97 221.27 186.77L221.27 186.77Q212.11 198.47 201.39 208.71Q190.66 218.95 180.13 226.16L180.13 226.16L177.79 224.41Q181.3 217.97 185.01 209.1Q188.71 200.23 192.32 190.38Q195.93 180.53 198.85 170.78" fill="#faf8f4"/>
</svg>
